<svg width="16" height="16" viewBox="0 0 16 16" fill="none" xmlns="http://www.w3.org/2000/svg">
<g clip-path="url(#clip0_5_4607)">
<path d="M0.75 2.06995H15.25C15.4489 2.06995 15.6397 2.16872 15.7803 2.34453C15.921 2.52035 16 2.75881 16 3.00745C16 3.25609 15.921 3.49454 15.7803 3.67036C15.6397 3.84617 15.4489 3.94495 15.25 3.94495H0.75C0.551088 3.94495 0.360322 3.84617 0.21967 3.67036C0.0790176 3.49454 0 3.25609 0 3.00745C0 2.75881 0.0790176 2.52035 0.21967 2.34453C0.360322 2.16872 0.551088 2.06995 0.75 2.06995ZM3 8.00745C3 7.75881 3.07902 7.52035 3.21967 7.34453C3.36032 7.16872 3.55109 7.06995 3.75 7.06995H12.25C12.4489 7.06995 12.6397 7.16872 12.7803 7.34453C12.921 7.52035 13 7.75881 13 8.00745C13 8.25609 12.921 8.49454 12.7803 8.67036C12.6397 8.84617 12.4489 8.94495 12.25 8.94495H3.75C3.55109 8.94495 3.36032 8.84617 3.21967 8.67036C3.07902 8.49454 3 8.25609 3 8.00745ZM6 13.0074C6 12.7588 6.07902 12.5203 6.21967 12.3445C6.36032 12.1687 6.55109 12.0699 6.75 12.0699H9.25C9.44891 12.0699 9.63968 12.1687 9.78033 12.3445C9.92098 12.5203 10 12.7588 10 13.0074C10 13.2561 9.92098 13.4945 9.78033 13.6704C9.63968 13.8462 9.44891 13.9449 9.25 13.9449H6.75C6.55109 13.9449 6.36032 13.8462 6.21967 13.6704C6.07902 13.4945 6 13.2561 6 13.0074Z" fill="#212121"/>
</g>
<defs>
<clipPath id="clip0_5_4607">
<rect width="16" height="16" fill="white"/>
</clipPath>
</defs>
</svg>
