<svg width="16" height="17" viewBox="0 0 16 17" fill="none" xmlns="http://www.w3.org/2000/svg">
<g clip-path="url(#clip0_52_31754)">
<path fill-rule="evenodd" clip-rule="evenodd" d="M13.3694 12.7953C14.9851 11.5034 16 9.63675 16 7.56094C16 3.66128 12.4183 0.5 8 0.5C3.58172 0.5 0 3.66128 0 7.56094C0 9.56181 0.942928 11.3683 2.45798 12.6532C2.36616 12.9702 2.31579 13.315 2.31579 13.6756C2.31579 15.2355 3.25834 16.5 4.42106 16.5C5.17656 16.5 5.83913 15.9661 6.21053 15.1642C6.58194 15.9661 7.2445 16.5 8 16.5C8.68869 16.5 9.30013 16.0564 9.68422 15.3705C10.0683 16.0564 10.6798 16.5 11.3684 16.5C12.5311 16.5 13.4737 15.2355 13.4737 13.6756C13.4737 13.3682 13.4371 13.0723 13.3694 12.7953ZM12.6316 7.70097C12.6316 9.68078 10.5108 11.2858 7.89475 11.2858C5.27866 11.2858 3.15791 9.68078 3.15791 7.70097C3.15791 5.72116 5.27866 4.11619 7.89475 4.11619C10.5108 4.11619 12.6316 5.72116 12.6316 7.70097Z" fill="#212121"/>
</g>
<defs>
<clipPath id="clip0_52_31754">
<rect width="16" height="16" fill="white" transform="translate(0 0.5)"/>
</clipPath>
</defs>
</svg>
