<svg width="98" height="109" viewBox="0 0 98 109" fill="none" xmlns="http://www.w3.org/2000/svg">
<path fill-rule="evenodd" clip-rule="evenodd" d="M97.2027 68.0935C92.2212 29.6751 59.3768 4.57764e-05 19.6014 4.57764e-05C-20.174 4.57764e-05 -53.0184 29.6751 -58 68.0935H-29.4265C-24.7306 45.3182 -4.5641 28.1949 19.6017 28.1949C43.7676 28.1949 63.934 45.3182 68.63 68.0935H97.2027ZM97.2027 88.417H68.63C63.934 111.192 43.7675 128.315 19.6017 128.315C-4.56408 128.315 -24.7306 111.192 -29.4265 88.417H-58C-53.0184 126.835 -20.174 156.51 19.6014 156.51C59.3767 156.51 92.2211 126.835 97.2027 88.417Z" fill="white" fill-opacity="0.16"/>
</svg>
