<svg width="24" height="24" viewBox="0 0 24 24" fill="none" xmlns="http://www.w3.org/2000/svg">
<g clip-path="url(#clip0_11_907)">
<path fill-rule="evenodd" clip-rule="evenodd" d="M9.89571 1C8.47708 1.00012 7.07905 1.33949 5.81826 1.9898C4.55746 2.64011 3.47046 3.5825 2.64795 4.73835C1.82544 5.8942 1.29127 7.22998 1.09 8.63426C0.888725 10.0385 1.02619 11.4706 1.49093 12.8109C1.95567 14.1513 2.73421 15.361 3.76158 16.3393C4.78896 17.3176 6.03538 18.036 7.39686 18.4346C8.75835 18.8331 10.1954 18.9004 11.5882 18.6306C12.9809 18.3609 14.2889 17.7619 15.4031 16.8839L19.2255 20.7062C19.4229 20.8968 19.6873 21.0023 19.9617 21C20.2361 20.9976 20.4986 20.8875 20.6927 20.6934C20.8867 20.4994 20.9968 20.2369 20.9992 19.9625C21.0016 19.688 20.8961 19.4236 20.7054 19.2262L16.8831 15.4039C17.9172 14.0921 18.561 12.5156 18.741 10.8549C18.921 9.19422 18.6297 7.51642 17.9007 6.01352C17.1716 4.51061 16.0342 3.24333 14.6185 2.35669C13.2028 1.47005 11.5661 0.999888 9.89571 1ZM3.09253 9.89647C3.09253 8.09215 3.80929 6.36173 5.08513 5.08589C6.36098 3.81005 8.09139 3.09329 9.89571 3.09329C11.7 3.09329 13.4304 3.81005 14.7063 5.08589C15.9821 6.36173 16.6989 8.09215 16.6989 9.89647C16.6989 11.7008 15.9821 13.4312 14.7063 14.707C13.4304 15.9829 11.7 16.6996 9.89571 16.6996C8.09139 16.6996 6.36098 15.9829 5.08513 14.707C3.80929 13.4312 3.09253 11.7008 3.09253 9.89647Z" fill="#416EDF"/>
</g>
<defs>
<clipPath id="clip0_11_907">
<rect width="24" height="24" fill="white"/>
</clipPath>
</defs>
</svg>
